<svg width="32" height="30" viewBox="0 0 32 30" fill="none" xmlns="http://www.w3.org/2000/svg">
<path fill-rule="evenodd" clip-rule="evenodd" d="M6.61728 0.238699C5.14641 0.595169 3.77423 1.38921 2.58822 2.57055C0.827043 4.32488 0 6.29372 0 8.73219C0 11.1691 0.82642 13.1372 2.58822 14.8965C4.3024 16.6082 6.33303 17.4523 8.72294 17.447C11.7039 17.4405 14.4216 15.9343 16.0788 13.3704C17.8545 10.6229 17.8545 6.8415 16.0788 4.09403C14.032 0.9272 10.2074 -0.631307 6.61728 0.238699ZM29.0606 5.9936C28.2667 6.33933 27.7452 7.09352 27.7452 7.89565C27.7452 9.21506 28.607 10.1321 29.8467 10.1321C31.0483 10.1321 32 9.21102 32 8.04852C32 7.17384 31.5553 6.4609 30.7738 6.08264C30.0355 5.72523 29.715 5.70858 29.0606 5.9936ZM22.0126 8.9632C20.7285 9.36388 19.6624 10.3592 19.1752 11.612C19.0752 11.8688 18.9868 12.539 18.9786 13.1014C18.9303 16.4211 22.4606 18.49 25.4286 16.8814C26.2685 16.4262 27.0426 15.5219 27.3832 14.5982C27.4837 14.3257 27.5706 13.6473 27.5762 13.0908C27.6059 10.1775 24.7977 8.09413 22.0126 8.9632ZM21.3685 19.3412C18.1302 20.6134 17.1873 25.0431 19.6236 27.5378C20.7516 28.6927 21.6169 29.0467 23.3088 29.0449C24.5331 29.0437 24.8122 28.9897 25.5219 28.6169C26.5564 28.0733 27.3218 27.3063 27.8554 26.2782C28.2206 25.5744 28.2776 25.2791 28.2815 24.0651C28.2854 22.8847 28.2258 22.5416 27.9026 21.8858C27.4134 20.8928 26.471 19.9501 25.4841 19.4665C24.3897 18.9302 22.5566 18.8743 21.3685 19.3412Z" fill="black"/>
</svg>
