<svg width="89" height="16" viewBox="0 0 89 16" fill="none" xmlns="http://www.w3.org/2000/svg">
<g clip-path="url(#clip0_2794_10634)">
<path d="M8.50001 11.8335L4.38535 13.9968L5.17135 9.41484L1.83801 6.17017L6.43801 5.50351L8.49535 1.33484L10.5527 5.50351L15.1527 6.17017L11.8193 9.41484L12.6053 13.9968L8.50001 11.8335Z" fill="#FDBC00"/>
<path fill-rule="evenodd" clip-rule="evenodd" d="M8.49537 0.584839C8.78085 0.584839 9.04158 0.746914 9.16792 1.00292L11.0507 4.81784L15.2603 5.42793C15.5429 5.46889 15.7778 5.66686 15.866 5.93853C15.9543 6.21019 15.8805 6.50837 15.6758 6.7076L12.6253 9.677L13.3446 13.87C13.3929 14.1515 13.2771 14.436 13.0459 14.6038C12.8148 14.7716 12.5084 14.7935 12.2557 14.6604L8.49964 12.6811L4.73439 14.6607C4.4817 14.7935 4.17549 14.7714 3.94453 14.6036C3.71356 14.4358 3.5979 14.1514 3.64616 13.87L4.36544 9.677L1.3149 6.7076C1.11023 6.50837 1.03649 6.21019 1.1247 5.93853C1.21292 5.66686 1.44779 5.46889 1.73046 5.42793L5.94006 4.81784L7.82281 1.00292C7.94916 0.746914 8.20988 0.584839 8.49537 0.584839ZM8.49537 3.02952L7.11059 5.83543C7.0013 6.05687 6.79 6.21033 6.54561 6.24575L3.45159 6.69416L5.6945 8.87741C5.87152 9.04972 5.95234 9.29816 5.91057 9.54164L5.38152 12.6258L8.15101 11.1697C8.36973 11.0547 8.63106 11.0548 8.84968 11.17L11.6089 12.624L11.0802 9.54164C11.0384 9.29816 11.1192 9.04972 11.2962 8.87741L13.5391 6.69416L10.4451 6.24575C10.2007 6.21033 9.98944 6.05687 9.88015 5.83543L8.49537 3.02952Z" fill="#FDBC00"/>
</g>
<g clip-path="url(#clip1_2794_10634)">
<path d="M26.5 11.8335L22.3853 13.9968L23.1713 9.41484L19.838 6.17017L24.438 5.50351L26.4953 1.33484L28.5527 5.50351L33.1527 6.17017L29.8193 9.41484L30.6053 13.9968L26.5 11.8335Z" fill="#FDBC00"/>
<path fill-rule="evenodd" clip-rule="evenodd" d="M26.4954 0.584839C26.7809 0.584839 27.0416 0.746914 27.1679 1.00292L29.0507 4.81784L33.2603 5.42793C33.5429 5.46889 33.7778 5.66686 33.866 5.93853C33.9543 6.21019 33.8805 6.50837 33.6758 6.7076L30.6253 9.677L31.3446 13.87C31.3929 14.1515 31.2771 14.436 31.0459 14.6038C30.8148 14.7716 30.5084 14.7935 30.2557 14.6604L26.4996 12.6811L22.7344 14.6607C22.4817 14.7935 22.1755 14.7714 21.9445 14.6036C21.7136 14.4358 21.5979 14.1514 21.6462 13.87L22.3654 9.677L19.3149 6.7076C19.1102 6.50837 19.0365 6.21019 19.1247 5.93853C19.2129 5.66686 19.4478 5.46889 19.7305 5.42793L23.9401 4.81784L25.8228 1.00292C25.9492 0.746914 26.2099 0.584839 26.4954 0.584839ZM26.4954 3.02952L25.1106 5.83543C25.0013 6.05687 24.79 6.21033 24.5456 6.24575L21.4516 6.69416L23.6945 8.87741C23.8715 9.04972 23.9523 9.29816 23.9106 9.54164L23.3815 12.6258L26.151 11.1697C26.3697 11.0547 26.6311 11.0548 26.8497 11.17L29.6089 12.624L29.0802 9.54164C29.0384 9.29816 29.1192 9.04972 29.2962 8.87741L31.5391 6.69416L28.4451 6.24575C28.2007 6.21033 27.9894 6.05687 27.8801 5.83543L26.4954 3.02952Z" fill="#FDBC00"/>
</g>
<g clip-path="url(#clip2_2794_10634)">
<path d="M44.5 11.8335L40.3853 13.9968L41.1713 9.41484L37.838 6.17017L42.438 5.50351L44.4953 1.33484L46.5527 5.50351L51.1527 6.17017L47.8193 9.41484L48.6053 13.9968L44.5 11.8335Z" fill="#FDBC00"/>
<path fill-rule="evenodd" clip-rule="evenodd" d="M44.4954 0.584839C44.7809 0.584839 45.0416 0.746914 45.1679 1.00292L47.0507 4.81784L51.2603 5.42793C51.5429 5.46889 51.7778 5.66686 51.866 5.93853C51.9543 6.21019 51.8805 6.50837 51.6758 6.7076L48.6253 9.677L49.3446 13.87C49.3929 14.1515 49.2771 14.436 49.0459 14.6038C48.8148 14.7716 48.5084 14.7935 48.2557 14.6604L44.4996 12.6811L40.7344 14.6607C40.4817 14.7935 40.1755 14.7714 39.9445 14.6036C39.7136 14.4358 39.5979 14.1514 39.6462 13.87L40.3654 9.677L37.3149 6.7076C37.1102 6.50837 37.0365 6.21019 37.1247 5.93853C37.2129 5.66686 37.4478 5.46889 37.7305 5.42793L41.9401 4.81784L43.8228 1.00292C43.9492 0.746914 44.2099 0.584839 44.4954 0.584839ZM44.4954 3.02952L43.1106 5.83543C43.0013 6.05687 42.79 6.21033 42.5456 6.24575L39.4516 6.69416L41.6945 8.87741C41.8715 9.04972 41.9523 9.29816 41.9106 9.54164L41.3815 12.6258L44.151 11.1697C44.3697 11.0547 44.6311 11.0548 44.8497 11.17L47.6089 12.624L47.0802 9.54164C47.0384 9.29816 47.1192 9.04972 47.2962 8.87741L49.5391 6.69416L46.4451 6.24575C46.2007 6.21033 45.9894 6.05687 45.8801 5.83543L44.4954 3.02952Z" fill="#FDBC00"/>
</g>
<g clip-path="url(#clip3_2794_10634)">
<path d="M62.5 11.8335L58.3853 13.9968L59.1713 9.41484L55.838 6.17017L60.438 5.50351L62.4953 1.33484L64.5527 5.50351L69.1527 6.17017L65.8193 9.41484L66.6053 13.9968L62.5 11.8335Z" fill="#D1D5DB"/>
<path fill-rule="evenodd" clip-rule="evenodd" d="M62.4954 0.584839C62.7809 0.584839 63.0416 0.746914 63.1679 1.00292L65.0507 4.81784L69.2603 5.42793C69.5429 5.46889 69.7778 5.66686 69.866 5.93853C69.9543 6.21019 69.8805 6.50837 69.6758 6.7076L66.6253 9.677L67.3446 13.87C67.3929 14.1515 67.2771 14.436 67.0459 14.6038C66.8148 14.7716 66.5084 14.7935 66.2557 14.6604L62.4996 12.6811L58.7344 14.6607C58.4817 14.7935 58.1755 14.7714 57.9445 14.6036C57.7136 14.4358 57.5979 14.1514 57.6462 13.87L58.3654 9.677L55.3149 6.7076C55.1102 6.50837 55.0365 6.21019 55.1247 5.93853C55.2129 5.66686 55.4478 5.46889 55.7305 5.42793L59.9401 4.81784L61.8228 1.00292C61.9492 0.746914 62.2099 0.584839 62.4954 0.584839ZM62.4954 3.02952L61.1106 5.83543C61.0013 6.05687 60.79 6.21033 60.5456 6.24575L57.4516 6.69416L59.6945 8.87741C59.8715 9.04972 59.9523 9.29816 59.9106 9.54164L59.3815 12.6258L62.151 11.1697C62.3697 11.0547 62.6311 11.0548 62.8497 11.17L65.6089 12.624L65.0802 9.54164C65.0384 9.29816 65.1192 9.04972 65.2962 8.87741L67.5391 6.69416L64.4451 6.24575C64.2007 6.21033 63.9894 6.05687 63.8801 5.83543L62.4954 3.02952Z" fill="#D1D5DB"/>
</g>
<g clip-path="url(#clip4_2794_10634)">
<path d="M80.5 11.8335L76.3853 13.9968L77.1713 9.41484L73.838 6.17017L78.438 5.50351L80.4953 1.33484L82.5527 5.50351L87.1527 6.17017L83.8193 9.41484L84.6053 13.9968L80.5 11.8335Z" fill="#D1D5DB"/>
<path fill-rule="evenodd" clip-rule="evenodd" d="M80.4954 0.584839C80.7809 0.584839 81.0416 0.746914 81.1679 1.00292L83.0507 4.81784L87.2603 5.42793C87.5429 5.46889 87.7778 5.66686 87.866 5.93853C87.9543 6.21019 87.8805 6.50837 87.6758 6.7076L84.6253 9.677L85.3446 13.87C85.3929 14.1515 85.2771 14.436 85.0459 14.6038C84.8148 14.7716 84.5084 14.7935 84.2557 14.6604L80.4996 12.6811L76.7344 14.6607C76.4817 14.7935 76.1755 14.7714 75.9445 14.6036C75.7136 14.4358 75.5979 14.1514 75.6462 13.87L76.3654 9.677L73.3149 6.7076C73.1102 6.50837 73.0365 6.21019 73.1247 5.93853C73.2129 5.66686 73.4478 5.46889 73.7305 5.42793L77.9401 4.81784L79.8228 1.00292C79.9492 0.746914 80.2099 0.584839 80.4954 0.584839ZM80.4954 3.02952L79.1106 5.83543C79.0013 6.05687 78.79 6.21033 78.5456 6.24575L75.4516 6.69416L77.6945 8.87741C77.8715 9.04972 77.9523 9.29816 77.9106 9.54164L77.3815 12.6258L80.151 11.1697C80.3697 11.0547 80.6311 11.0548 80.8497 11.17L83.6089 12.624L83.0802 9.54164C83.0384 9.29816 83.1192 9.04972 83.2962 8.87741L85.5391 6.69416L82.4451 6.24575C82.2007 6.21033 81.9894 6.05687 81.8801 5.83543L80.4954 3.02952Z" fill="#D1D5DB"/>
</g>
<defs>
<clipPath id="clip0_2794_10634">
<rect width="16" height="16" fill="white" transform="translate(0.5 0.00012207)"/>
</clipPath>
<clipPath id="clip1_2794_10634">
<rect width="16" height="16" fill="white" transform="translate(18.5 0.00012207)"/>
</clipPath>
<clipPath id="clip2_2794_10634">
<rect width="16" height="16" fill="white" transform="translate(36.5 0.00012207)"/>
</clipPath>
<clipPath id="clip3_2794_10634">
<rect width="16" height="16" fill="white" transform="translate(54.5 0.00012207)"/>
</clipPath>
<clipPath id="clip4_2794_10634">
<rect width="16" height="16" fill="white" transform="translate(72.5 0.00012207)"/>
</clipPath>
</defs>
</svg>
