<svg width="172" height="32" viewBox="0 0 172 32" fill="none" xmlns="http://www.w3.org/2000/svg">
<path d="M8.08151 21.0217C7.85728 21.0469 7.51636 21.0549 7.05073 21.0549C5.73737 21.0549 5.0887 20.2484 5.0887 18.6261V3.2925C5.0887 3.01679 4.86561 2.7937 4.5899 2.7937H0.498802C0.223088 2.7937 0 3.01679 0 3.2925V19.2588C0 21.2963 0.531978 22.8842 1.6131 24.0157C2.68621 25.1472 4.19978 25.7123 6.1538 25.7123C6.86082 25.7123 7.59301 25.6459 8.34922 25.5132C8.59061 25.4721 8.71531 25.2718 8.71531 24.9149V21.588C8.71417 21.1636 8.49794 20.9805 8.08151 21.0217Z" fill="#3598CC"/>
<path d="M25.4448 14.6026V17.7956C25.4448 18.1731 25.2457 18.3607 24.8464 18.3607H15.4321V18.8927C15.4321 19.7359 15.6872 20.3731 16.1975 20.8056C16.7066 21.238 17.4056 21.4542 18.2934 21.4542C19.7348 21.4542 21.1432 21.055 22.5172 20.2564C22.8055 20.0356 23.0606 20.0791 23.2825 20.3891L25.0123 22.6841C25.2343 23.017 25.2011 23.2938 24.9128 23.5158C23.0057 24.9802 20.7439 25.7112 18.1263 25.7112C15.8417 25.7112 13.9689 25.1117 12.5045 23.9151C11.0401 22.7172 10.3091 21.0103 10.3091 18.7932V14.6014C10.3091 12.2515 11.0298 10.4829 12.4713 9.29534C13.9128 8.10897 15.7639 7.51636 18.0256 7.51636C20.2211 7.51636 22.0058 8.10439 23.3809 9.27932C24.7572 10.4554 25.4448 12.2287 25.4448 14.6026ZM20.554 14.3692C20.554 13.5043 20.3217 12.851 19.8561 12.4071C19.3905 11.9633 18.7693 11.7424 17.9936 11.7424C16.2856 11.7424 15.4321 12.6188 15.4321 14.3703V15.0693H20.5551V14.3692H20.554Z" fill="black"/>
<path d="M33.4277 18.6936C33.4277 20.3353 34.1702 21.1556 35.6563 21.1556C35.8783 21.1556 36.2329 21.1338 36.7214 21.0892C37.1424 21.0228 37.3529 21.1887 37.3529 21.588V24.8474C37.3529 25.2249 37.1973 25.4469 36.8873 25.5121C36.2661 25.623 35.5671 25.6791 34.7914 25.6791C32.7962 25.6791 31.2209 25.1414 30.0677 24.066C28.9145 22.9906 28.3379 21.4107 28.3379 19.3262V4.38962C28.3379 4.01323 28.537 3.82446 28.9362 3.82446H32.3958C32.7722 3.82446 32.9724 4.00179 32.9953 4.35644L33.3945 8.34801H36.3885C36.7878 8.34801 36.988 8.53677 36.988 8.91316V12.1073C36.988 12.4849 36.7889 12.6725 36.3885 12.6725H33.4277V18.6936Z" fill="black"/>
<path d="M53.7186 19.8915C53.7186 21.8203 53.0699 23.2732 51.7726 24.2491C50.4752 25.225 48.6185 25.7135 46.2011 25.7135C43.651 25.7135 41.3447 24.9927 39.2819 23.5513C38.9708 23.3305 38.9158 23.0524 39.1161 22.7195L40.6788 20.0585C40.8996 19.7038 41.1662 19.6375 41.4774 19.8583C42.9406 20.8559 44.5262 21.3547 46.2343 21.3547C46.9436 21.3547 47.5145 21.238 47.9469 21.0058C48.3794 20.7735 48.5956 20.4463 48.5956 20.0242C48.5956 19.6249 48.3897 19.3252 47.9801 19.1261C47.5694 18.9259 46.9768 18.76 46.2011 18.6273C41.8103 17.8951 39.6149 16.0212 39.6149 13.0055C39.6149 11.2093 40.2578 9.84563 41.5449 8.91323C42.8308 7.98198 44.5937 7.51636 46.8338 7.51636C48.8072 7.51636 50.7693 8.0266 52.721 9.04594C53.0757 9.22327 53.142 9.48983 52.9201 9.84448L51.3905 12.4392C51.1914 12.7721 50.9249 12.8499 50.5919 12.6714C49.3724 12.0285 48.0853 11.707 46.7331 11.707C45.3145 11.707 44.604 12.1177 44.604 12.938C44.604 13.3819 44.8088 13.7033 45.2195 13.9024C45.6291 14.1026 46.3887 14.2914 47.4985 14.4676C51.6445 15.1792 53.7186 16.9867 53.7186 19.8915Z" fill="black"/>
<path d="M152.878 2.79375C152.878 3.59229 152.618 4.25812 152.097 4.78896C151.575 5.32094 150.905 5.5875 150.085 5.5875C149.264 5.5875 148.588 5.32208 148.055 4.78896C147.523 4.25698 147.257 3.59115 147.257 2.79375C147.257 1.97347 147.523 1.30306 148.055 0.781379C148.587 0.26084 149.263 0 150.085 0C150.905 0 151.576 0.26084 152.097 0.781379C152.616 1.30192 152.878 1.97347 152.878 2.79375Z" fill="#3598CC"/>
<path d="M81.727 9.34568C83.6341 8.12613 85.9188 7.51636 88.5787 7.51636C90.9285 7.51636 92.7315 8.13757 93.9843 9.37886C95.237 10.6213 95.8639 12.4838 95.8639 14.9675V24.0821C95.8639 24.415 95.6969 24.637 95.3651 24.7468C93.2578 25.3897 90.9743 25.7112 88.5123 25.7112C86.0503 25.7112 84.1329 25.2341 82.7578 24.2812C81.3826 23.3282 80.6951 21.8981 80.6951 19.9899C80.6951 18.2829 81.3277 16.9902 82.5919 16.115C83.8561 15.2386 85.6408 14.8005 87.9472 14.8005C88.7228 14.8005 89.6655 14.8668 90.7741 15.0007V14.6678C90.7741 13.7365 90.5682 13.0489 90.1586 12.6051C89.7479 12.1623 89.0226 11.9404 87.9803 11.9404C86.3386 11.9404 84.9532 12.2515 83.8229 12.8716C83.4671 13.0707 83.2017 13.0043 83.0243 12.6714L81.6606 10.0767C81.4822 9.74495 81.5051 9.50127 81.727 9.34568ZM85.8513 19.8583C85.8513 21.0115 86.7379 21.5881 88.5123 21.5881C89.2216 21.5881 89.9767 21.5 90.7741 21.3227V18.3951C90.1094 18.2623 89.344 18.1948 88.4791 18.1948C86.7276 18.1948 85.8513 18.7497 85.8513 19.8583Z" fill="black"/>
<path d="M103.814 25.2799H99.8886C99.4893 25.2799 99.2903 25.0797 99.2903 24.6804V9.57907C99.2903 9.26903 99.4344 9.03564 99.7227 8.88005C101.585 7.97168 103.625 7.51636 105.843 7.51636C106.664 7.51636 107.739 7.62733 109.07 7.84927C109.424 7.91563 109.602 8.12613 109.602 8.48078V11.5411C109.602 11.9621 109.39 12.1406 108.969 12.0731C108.371 11.985 107.683 11.9404 106.906 11.9404C105.909 11.9404 105.065 12.0845 104.378 12.3728V24.6804C104.379 25.0797 104.19 25.2799 103.814 25.2799Z" fill="black"/>
<path d="M126.333 23.6164C126.333 26.4994 125.706 28.617 124.453 29.9704C123.2 31.3227 121.187 32 118.416 32C115.843 32 113.648 31.4005 111.83 30.2038C111.542 29.9819 111.497 29.705 111.697 29.3721L113.46 26.6779C113.659 26.3896 113.915 26.3335 114.226 26.5108C115.467 27.243 116.798 27.608 118.217 27.608C119.303 27.608 120.102 27.3643 120.612 26.8758C121.121 26.3873 121.366 25.5453 121.344 24.3475C120.302 24.6804 119.27 24.8463 118.25 24.8463C116.077 24.8463 114.325 24.2148 112.995 22.9506C111.664 21.6864 111 19.9463 111 17.728V15.0018C111 12.5181 111.732 10.6498 113.195 9.39712C114.658 8.14439 116.587 7.51746 118.983 7.51746C121.311 7.51746 123.617 7.96134 125.902 8.84798C126.19 8.98069 126.334 9.21407 126.334 9.54584V23.6164H126.333ZM116.155 17.7955C116.155 19.5917 117.074 20.4898 118.916 20.4898C119.98 20.4898 120.757 20.301 121.244 19.9246V12.3739C120.69 12.1531 119.947 12.041 119.016 12.041C117.109 12.041 116.155 12.9837 116.155 14.8679V17.7955Z" fill="black"/>
<path d="M129.892 9.34568C131.799 8.12613 134.084 7.51636 136.744 7.51636C139.094 7.51636 140.897 8.13757 142.15 9.37886C143.402 10.6213 144.029 12.4838 144.029 14.9675V24.0821C144.029 24.415 143.862 24.637 143.53 24.7468C141.423 25.3897 139.14 25.7112 136.678 25.7112C134.216 25.7112 132.298 25.2341 130.923 24.2812C129.548 23.3282 128.86 21.8981 128.86 19.9899C128.86 18.2829 129.493 16.9902 130.757 16.115C132.021 15.2386 133.806 14.8005 136.112 14.8005C136.888 14.8005 137.831 14.8668 138.939 15.0007V14.6678C138.939 13.7365 138.733 13.0489 138.324 12.6051C137.913 12.1623 137.188 11.9404 136.146 11.9404C134.504 11.9404 133.118 12.2515 131.988 12.8716C131.632 13.0707 131.367 13.0043 131.19 12.6714L129.826 10.0767C129.647 9.74495 129.67 9.50127 129.892 9.34568ZM134.017 19.8583C134.017 21.0115 134.903 21.5881 136.678 21.5881C137.387 21.5881 138.142 21.5 138.939 21.3227V18.3951C138.275 18.2623 137.509 18.1948 136.644 18.1948C134.893 18.1948 134.017 18.7497 134.017 19.8583Z" fill="black"/>
<path d="M152.047 25.2799H148.122C147.722 25.2799 147.523 25.0797 147.523 24.6804V8.54831C147.523 8.17192 147.722 7.98315 148.122 7.98315H152.047C152.423 7.98315 152.612 8.17192 152.612 8.54831V24.6804C152.612 25.0797 152.423 25.2799 152.047 25.2799Z" fill="black"/>
<path d="M160.794 25.3131H156.869C156.47 25.3131 156.271 25.1129 156.271 24.7136V9.57907C156.271 9.24615 156.415 9.01391 156.703 8.88005C158.92 7.97168 161.248 7.51636 163.688 7.51636C166.217 7.51636 168.167 8.18104 169.543 9.51156C170.917 10.8421 171.605 12.7492 171.605 15.2329V24.7147C171.605 25.114 171.405 25.3142 171.006 25.3142H167.081C166.681 25.3142 166.481 25.114 166.481 24.7147V15.2341C166.481 14.0809 166.249 13.2606 165.783 12.7721C165.318 12.2847 164.619 12.0399 163.687 12.0399C162.778 12.0399 162.002 12.1394 161.358 12.3396V24.7147C161.359 25.1129 161.172 25.3131 160.794 25.3131Z" fill="black"/>
<path d="M78.6689 14.8691V18.1617C78.6689 20.515 77.9459 22.3615 76.5067 23.7C75.0595 25.0385 73.1558 25.7123 70.7853 25.7123C68.3234 25.7123 65.9792 25.3131 63.7667 24.5145C63.4509 24.3818 63.301 24.1484 63.301 23.8155V3.2914C63.301 3.01569 63.5241 2.7926 63.7998 2.7926H67.8909C68.1666 2.7926 68.3897 3.01569 68.3897 3.2914V8.08151C69.4685 7.69253 70.5394 7.50148 71.601 7.51636C71.6033 7.51979 71.6056 7.52093 71.6079 7.52436V13.9196C71.9157 14.0363 72.1319 14.3349 72.1319 14.6849C72.1319 15.1425 71.7578 15.5166 71.3002 15.5166C70.8345 15.5166 70.4684 15.1425 70.4684 14.6849C70.4684 14.336 70.6847 14.0363 70.9844 13.9196V11.9735H70.2522C69.861 11.9735 69.504 12.2069 69.3381 12.5639L68.4732 14.4687C68.4183 14.59 68.3897 14.7204 68.3897 14.8531V20.1901C68.3897 20.4646 68.5064 20.722 68.6895 20.9051C68.8645 21.0801 69.1139 21.1877 69.3885 21.1877H72.8812C73.4304 21.1877 73.8788 20.7381 73.8788 20.1901V14.884C73.8788 14.7433 73.8491 14.6037 73.7907 14.4744L72.9236 12.5639C72.7908 12.2733 72.5323 12.0651 72.2337 11.9987V7.54953C74.0379 7.68224 75.5262 8.34006 76.6909 9.51156C78.0031 10.8444 78.6689 12.6314 78.6689 14.8691Z" fill="#3598CC"/>
<path d="M74.1693 14.304L73.4543 12.7401C73.2301 12.2333 72.7805 11.9999 72.2313 11.9999C72.5311 12.0662 72.7885 12.2744 72.9212 12.565L73.7861 14.4699C73.8444 14.6026 73.8776 14.7444 73.8776 14.8852V20.1912C73.8776 20.7404 73.428 21.1888 72.88 21.1888H69.3872C69.1127 21.1888 68.8633 21.0801 68.6882 20.9063C69.0463 21.3215 69.3872 21.6053 70.5679 21.6053H72.88C73.6534 21.6053 74.294 20.9738 74.294 20.1912V14.8852C74.294 14.6861 74.2448 14.4779 74.1693 14.304Z" fill="#1E75A3"/>
</svg>
